<?xml version="1.0" encoding="utf-8"?>
<!-- Generator: Adobe Illustrator 23.1.1, SVG Export Plug-In . SVG Version: 6.00 Build 0)  -->
<svg version="1.1" id="Layer_1" xmlns="http://www.w3.org/2000/svg" xmlns:xlink="http://www.w3.org/1999/xlink" x="0px" y="0px"
	 viewBox="0 0 283 17" style="enable-background:new 0 0 283 17;" xml:space="preserve">
<style type="text/css">
	.st0{fill-rule:evenodd;clip-rule:evenodd;fill:#FFFFFF;}
	.st1{fill-rule:evenodd;clip-rule:evenodd;fill:#B5252A;}
</style>
<title>af_logo300</title>
<g>
	<path class="st0" d="M28.4,10.6h3.1L30,4h0L28.4,10.6L28.4,10.6z M24,16.8l4-16.3h4L36,16.8h-3l-0.8-3.4h-4.3L27,16.8L24,16.8
		L24,16.8z M37.7,16.8V0.4h3.1v6.7h0l4-6.7h3.4L44.1,7l4.7,9.8h-3.5L42,9.9l-1.2,1.9v5L37.7,16.8 M53.5,0.4v11.4
		c0,1.6,0.7,2.4,2.2,2.4c1.5,0,2.2-0.8,2.2-2.4V0.4h3.1v11.5c0,3.6-2.1,5.1-5.3,5.1s-5.3-1.5-5.3-5.1V0.4H53.5 M67.3,7.6H69
		c1.5,0,2.3-0.8,2.3-2.3S70.6,3,69,3h-1.7V7.6z M64.2,16.8V0.4h4.5c3.8,0,5.7,1.8,5.7,4.9c0,3.1-1.9,4.9-5.7,4.9h-1.4v6.6
		C67.3,16.8,64.2,16.8,64.2,16.8z M79.5,0.4v11.4c0,1.6,0.7,2.4,2.2,2.4c1.5,0,2.2-0.8,2.2-2.4V0.4h3.1v11.5c0,3.6-2.1,5.1-5.3,5.1
		s-5.3-1.5-5.3-5.1V0.4H79.5 M90.2,16.8V0.4h3.4l4.3,9.7h0V0.4h2.8v16.3h-3L93.1,6.2h0v10.5L90.2,16.8 M104.2,16.8V0.4h3.1v6.7h0
		l4-6.7h3.4L110.7,7l4.7,9.8h-3.5l-3.3-6.9l-1.2,1.9v5H104.2 M126.3,0.4v2.8h-3.6v13.6h-3.1V3.2h-3.6V0.4H126.3 M131.4,0.4v11.4
		c0,1.6,0.7,2.4,2.2,2.4c1.5,0,2.2-0.8,2.2-2.4V0.4h3.1v11.5c0,3.6-2.1,5.1-5.3,5.1s-5.3-1.5-5.3-5.1V0.4H131.4 M145,7.5h1.6
		c1.4,0,2.2-0.7,2.2-2.3c0-1.6-0.8-2.3-2.2-2.3H145V7.5z M149.2,16.8l-2.7-6.7H145v6.7h-3.1V0.4h4.5c3.8,0,5.5,1.8,5.5,4.9
		c0,2-0.7,3.5-2.5,4.2l3.1,7.3L149.2,16.8L149.2,16.8z M164.7,0.4L164.3,2h-7.1v5.5h5.8L162.6,9h-5.5v7.8h-1.8V0.4H164.7
		 M171.5,15.5c2.9,0,4.6-2.2,4.6-6.9c0-4.6-1.7-6.9-4.6-6.9c-2.9,0-4.6,2.2-4.6,6.9C167,13.2,168.6,15.5,171.5,15.5z M171.5,0.2
		c4,0,6.4,2.9,6.4,8.4s-2.4,8.4-6.4,8.4c-4,0-6.4-2.9-6.4-8.4S167.5,0.2,171.5,0.2L171.5,0.2z M182.2,7.8h3.3c2.5,0,3.8-0.9,3.8-3
		c0-2.2-1.5-2.9-3.8-2.9h-3.3L182.2,7.8L182.2,7.8z M180.4,16.8V0.4h5.2c3.5,0,5.4,1.6,5.4,4.3c0,2.3-1.3,3.6-3.3,4.3l3.5,7.8h-2
		L186,9.3h-3.8v7.4L180.4,16.8L180.4,16.8z M204.1,0.4L203.8,2h-7.2v5.5h5.7L201.8,9h-5.3v6.2h7.7l0.4,1.5h-9.9V0.4L204.1,0.4
		 M207.2,16.8V0.4h2.6L217,13h0.1V0.4h1.6v16.3h-1.5l-8.3-14.6h0v14.6L207.2,16.8 M223,16.8h1.8V0.4H223V16.8z M229.2,16.8V0.4h2.6
		l7.1,12.6h0.1V0.4h1.6v16.3h-1.5l-8.3-14.6h0v14.6H229.2 M255.4,8.9v7.9h-1.5v-1.5h0c-0.8,1.2-2.5,1.7-4.3,1.7
		c-3.7,0-6.4-2.7-6.4-8.4s2.7-8.4,6.4-8.4c2.8,0,4.9,1.3,5.9,4.8l-1.7,0.3c-0.8-2.6-2.2-3.6-4.1-3.6c-2.4,0-4.7,1.6-4.7,6.9
		s2.3,6.9,4.7,6.9c2.7,0,3.9-1.6,3.9-3.6v-1.4h-3.7l0.4-1.5H255.4 M268.2,0.4L267.8,2h-7.2v5.5h5.7L265.9,9h-5.3v6.2h7.7l0.4,1.5
		h-9.9V0.4L268.2,0.4 M271.3,16.8V0.4h2.6L281,13h0.1V0.4h1.6v16.3h-1.5l-8.3-14.6h0v14.6L271.3,16.8"/>
	<path class="st1" d="M16.6,8.6c0,4.6-3.7,8.3-8.3,8.3S0,13.2,0,8.6s3.7-8.3,8.3-8.3S16.6,4,16.6,8.6"/>
</g>
</svg>
