<?xml version="1.0" encoding="utf-8"?>
<!-- Generator: Adobe Illustrator 23.1.1, SVG Export Plug-In . SVG Version: 6.00 Build 0)  -->
<svg version="1.1" id="Layer_1" xmlns="http://www.w3.org/2000/svg" xmlns:xlink="http://www.w3.org/1999/xlink" x="0px" y="0px"
	 viewBox="0 0 600 600" style="enable-background:new 0 0 600 600;" xml:space="preserve">
<style type="text/css">
	.st0{fill:#05223B;}
	.st1{fill:#FFB88F;}
	.st2{fill:#000F6B;}
</style>
<g>
	<g>
		<path class="st0" d="M299.7,100.3c26.9,0,53.1,5.3,77.6,15.7c23.7,10,45.1,24.4,63.4,42.8c18.3,18.3,32.7,39.7,42.8,63.4
			c10.4,24.6,15.7,50.7,15.7,77.6s-5.3,53.1-15.7,77.6c-10,23.7-24.4,45.1-42.8,63.4c-18.3,18.3-39.7,32.7-63.4,42.8
			c-24.6,10.4-50.7,15.7-77.6,15.7s-53.1-5.3-77.6-15.7c-23.7-10-45.1-24.4-63.4-42.8c-18.3-18.3-32.7-39.7-42.8-63.4
			c-10.4-24.6-15.7-50.7-15.7-77.6s5.3-53.1,15.7-77.6c10-23.7,24.4-45.1,42.8-63.4s39.7-32.7,63.4-42.8
			C246.6,105.6,272.8,100.3,299.7,100.3 M299.7,81.3C179,81.3,81.2,179.2,81.2,299.8S179,518.3,299.7,518.3s218.5-97.8,218.5-218.5
			S420.3,81.3,299.7,81.3L299.7,81.3z"/>
	</g>
</g>
<g>
	<polygon class="st0" points="219.9,159 219.9,162.9 240,163 240,159.2 	"/>
	<polygon class="st0" points="219.8,165.5 219.8,169.4 239.9,169.5 239.9,165.6 	"/>
	<polygon class="st0" points="219.8,171.9 219.7,175.8 239.8,176 239.9,172.1 	"/>
	<polygon class="st0" points="219.7,178.4 219.7,182.3 239.8,182.5 239.8,178.6 	"/>
	<polygon class="st0" points="219.7,184.9 219.6,188.8 239.7,188.9 239.8,185 	"/>
	<polygon class="st0" points="219.6,191.3 219.5,195.2 239.7,195.4 239.7,191.5 	"/>
	<polygon class="st0" points="219.5,197.8 219.5,201.7 239.6,201.9 239.6,198 	"/>
	<polygon class="st0" points="219.5,204.3 219.4,208.2 239.5,208.3 239.6,204.5 	"/>
	<polygon class="st0" points="219.4,210.8 219.4,214.6 239.5,214.8 239.5,210.9 	"/>
	<polygon class="st0" points="219.3,217.2 219.3,221.1 239.4,221.3 239.4,217.4 	"/>
	<polygon class="st0" points="219.3,223.7 219.2,227.6 239.3,227.7 239.4,223.9 	"/>
	<polygon class="st0" points="219.2,230.2 219.2,234 239.3,234.2 239.3,230.3 	"/>
	<polygon class="st0" points="219.1,236.6 219.1,240.5 239.2,240.7 239.2,236.8 	"/>
	<polygon class="st0" points="229.6,424.2 230.4,337.8 230.5,331.4 231.3,247.1 239.1,247.2 239.2,243.3 219.1,243.1 219,247 
		226.9,247.1 226.1,326.1 226,332.5 225.1,424.2 227.7,441 	"/>
</g>
<g>
	
		<rect x="254.5" y="159" transform="matrix(1 -2.942253e-03 2.942253e-03 1 -0.4725 0.7789)" class="st0" width="20.1" height="3.9"/>
	
		<rect x="254.5" y="165.5" transform="matrix(1 -2.942253e-03 2.942253e-03 1 -0.4915 0.779)" class="st0" width="20.1" height="3.9"/>
	
		<rect x="254.5" y="172" transform="matrix(1 -2.942253e-03 2.942253e-03 1 -0.5105 0.7791)" class="st0" width="20.1" height="3.9"/>
	
		<rect x="254.5" y="178.4" transform="matrix(1 -2.942253e-03 2.942253e-03 1 -0.5296 0.7792)" class="st0" width="20.1" height="3.9"/>
	
		<rect x="254.5" y="184.9" transform="matrix(1 -2.942253e-03 2.942253e-03 1 -0.5486 0.7793)" class="st0" width="20.1" height="3.9"/>
	
		<rect x="254.5" y="191.4" transform="matrix(1 -2.942253e-03 2.942253e-03 1 -0.5676 0.7794)" class="st0" width="20.1" height="3.9"/>
	
		<rect x="254.6" y="197.8" transform="matrix(1 -2.942253e-03 2.942253e-03 1 -0.5867 0.7794)" class="st0" width="20.1" height="3.9"/>
	
		<rect x="254.6" y="204.3" transform="matrix(1 -2.942253e-03 2.942253e-03 1 -0.6057 0.7795)" class="st0" width="20.1" height="3.9"/>
	
		<rect x="254.6" y="210.8" transform="matrix(1 -2.942253e-03 2.942253e-03 1 -0.6247 0.7796)" class="st0" width="20.1" height="3.9"/>
	
		<rect x="254.6" y="217.3" transform="matrix(1 -2.942253e-03 2.942253e-03 1 -0.6438 0.7797)" class="st0" width="20.1" height="3.9"/>
	
		<rect x="254.6" y="223.7" transform="matrix(1 -2.942253e-03 2.942253e-03 1 -0.6628 0.7798)" class="st0" width="20.1" height="3.9"/>
	
		<rect x="254.7" y="230.2" transform="matrix(1 -2.942253e-03 2.942253e-03 1 -0.6819 0.7799)" class="st0" width="20.1" height="3.9"/>
	
		<rect x="254.7" y="236.7" transform="matrix(1 -2.942253e-03 2.942253e-03 1 -0.7009 0.7799)" class="st0" width="20.1" height="3.9"/>
	<polygon class="st0" points="267.5,424.2 267.3,337.7 267.2,331.3 267,247 274.8,247 274.8,243.1 254.7,243.2 254.7,247 262.5,247 
		262.7,326.1 262.8,332.5 263,424.2 265.8,441 	"/>
</g>
<g>
	<polygon class="st0" points="288.9,159 288.9,162.9 309,163 309,159.2 	"/>
	<polygon class="st0" points="288.8,165.5 288.8,169.4 308.9,169.5 308.9,165.6 	"/>
	<polygon class="st0" points="288.8,171.9 288.7,175.8 308.8,176 308.9,172.1 	"/>
	<polygon class="st0" points="288.7,178.4 288.7,182.3 308.8,182.5 308.8,178.6 	"/>
	<polygon class="st0" points="288.7,184.9 288.6,188.8 308.7,188.9 308.8,185 	"/>
	<polygon class="st0" points="288.6,191.3 288.5,195.2 308.7,195.4 308.7,191.5 	"/>
	<polygon class="st0" points="288.5,197.8 288.5,201.7 308.6,201.9 308.6,198 	"/>
	<polygon class="st0" points="288.5,204.3 288.4,208.2 308.5,208.3 308.6,204.5 	"/>
	<polygon class="st0" points="288.4,210.8 288.4,214.6 308.5,214.8 308.5,210.9 	"/>
	<polygon class="st0" points="288.3,217.2 288.3,221.1 308.4,221.3 308.4,217.4 	"/>
	<polygon class="st0" points="288.3,223.7 288.2,227.6 308.3,227.7 308.4,223.9 	"/>
	<polygon class="st0" points="288.2,230.2 288.2,234 308.3,234.2 308.3,230.3 	"/>
	<polygon class="st0" points="288.1,236.6 288.1,240.5 308.2,240.7 308.2,236.8 	"/>
	<polygon class="st0" points="298.6,424.2 299.4,337.8 299.5,331.4 300.3,247.1 308.1,247.2 308.2,243.3 288.1,243.1 288,247 
		295.9,247.1 295.1,326.1 295,332.5 294.1,424.2 296.7,441 	"/>
</g>
<g>
	
		<rect x="323.5" y="159" transform="matrix(1 -2.942253e-03 2.942253e-03 1 -0.4722 0.9819)" class="st0" width="20.1" height="3.9"/>
	
		<rect x="323.5" y="165.5" transform="matrix(1 -2.942253e-03 2.942253e-03 1 -0.4912 0.982)" class="st0" width="20.1" height="3.9"/>
	
		<rect x="323.5" y="172" transform="matrix(1 -2.942253e-03 2.942253e-03 1 -0.5102 0.9821)" class="st0" width="20.1" height="3.9"/>
	
		<rect x="323.5" y="178.4" transform="matrix(1 -2.942253e-03 2.942253e-03 1 -0.5293 0.9822)" class="st0" width="20.1" height="3.9"/>
	
		<rect x="323.5" y="184.9" transform="matrix(1 -2.942253e-03 2.942253e-03 1 -0.5483 0.9823)" class="st0" width="20.1" height="3.9"/>
	
		<rect x="323.5" y="191.4" transform="matrix(1 -2.942253e-03 2.942253e-03 1 -0.5673 0.9824)" class="st0" width="20.1" height="3.9"/>
	
		<rect x="323.6" y="197.8" transform="matrix(1 -2.942253e-03 2.942253e-03 1 -0.5864 0.9825)" class="st0" width="20.1" height="3.9"/>
	
		<rect x="323.6" y="204.3" transform="matrix(1 -2.942253e-03 2.942253e-03 1 -0.6054 0.9825)" class="st0" width="20.1" height="3.9"/>
	
		<rect x="323.6" y="210.8" transform="matrix(1 -2.942253e-03 2.942253e-03 1 -0.6244 0.9826)" class="st0" width="20.1" height="3.9"/>
	
		<rect x="323.6" y="217.3" transform="matrix(1 -2.942253e-03 2.942253e-03 1 -0.6435 0.9827)" class="st0" width="20.1" height="3.9"/>
	
		<rect x="323.6" y="223.7" transform="matrix(1 -2.942253e-03 2.942253e-03 1 -0.6625 0.9828)" class="st0" width="20.1" height="3.9"/>
	
		<rect x="323.7" y="230.2" transform="matrix(1 -2.942253e-03 2.942253e-03 1 -0.6816 0.9829)" class="st0" width="20.1" height="3.9"/>
	
		<rect x="323.7" y="236.7" transform="matrix(1 -2.942253e-03 2.942253e-03 1 -0.7006 0.983)" class="st0" width="20.1" height="3.9"/>
	<polygon class="st0" points="336.5,424.2 336.3,337.7 336.2,331.3 336,247 343.8,247 343.8,243.1 323.7,243.2 323.7,247 331.5,247 
		331.7,326.1 331.8,332.5 332,424.2 334.8,441 	"/>
</g>
<g>
	<polygon class="st0" points="355.9,159 355.9,162.9 376,163 376,159.2 	"/>
	<polygon class="st0" points="355.8,165.5 355.8,169.4 375.9,169.5 375.9,165.6 	"/>
	<polygon class="st0" points="355.8,171.9 355.7,175.8 375.8,176 375.9,172.1 	"/>
	<polygon class="st0" points="355.7,178.4 355.7,182.3 375.8,182.5 375.8,178.6 	"/>
	<polygon class="st0" points="355.7,184.9 355.6,188.8 375.7,188.9 375.8,185 	"/>
	<polygon class="st0" points="355.6,191.3 355.5,195.2 375.7,195.4 375.7,191.5 	"/>
	<polygon class="st0" points="355.5,197.8 355.5,201.7 375.6,201.9 375.6,198 	"/>
	<polygon class="st0" points="355.5,204.3 355.4,208.2 375.5,208.3 375.6,204.5 	"/>
	<polygon class="st0" points="355.4,210.8 355.4,214.6 375.5,214.8 375.5,210.9 	"/>
	<polygon class="st0" points="355.3,217.2 355.3,221.1 375.4,221.3 375.4,217.4 	"/>
	<polygon class="st0" points="355.3,223.7 355.2,227.6 375.3,227.7 375.4,223.9 	"/>
	<polygon class="st0" points="355.2,230.2 355.2,234 375.3,234.2 375.3,230.3 	"/>
	<polygon class="st0" points="355.1,236.6 355.1,240.5 375.2,240.7 375.2,236.8 	"/>
	<polygon class="st0" points="365.6,424.2 366.4,337.8 366.5,331.4 367.3,247.1 375.1,247.2 375.2,243.3 355.1,243.1 355,247 
		362.9,247.1 362.1,326.1 362,332.5 361.1,424.2 363.7,441 	"/>
</g>
<g>
	<path class="st1" d="M299.7,34.5c35.8,0,70.6,7,103.3,20.8c31.6,13.4,60,32.5,84.3,56.9c24.4,24.4,43.5,52.7,56.9,84.3
		C558,229.2,565,264,565,299.8s-7,70.6-20.8,103.3c-13.4,31.6-32.5,60-56.9,84.3c-24.4,24.4-52.7,43.5-84.3,56.9
		c-32.7,13.8-67.4,20.8-103.3,20.8s-70.6-7-103.3-20.8c-31.6-13.4-60-32.5-84.3-56.9c-24.4-24.4-43.5-52.7-56.9-84.3
		c-13.8-32.7-20.8-67.4-20.8-103.3s7-70.6,20.8-103.3c13.4-31.6,32.5-60,56.9-84.3s52.7-43.5,84.3-56.9
		C229.1,41.5,263.9,34.5,299.7,34.5 M299.7,15.5c-157,0-284.3,127.3-284.3,284.3s127.3,284.3,284.3,284.3S584,456.8,584,299.8
		S456.7,15.5,299.7,15.5L299.7,15.5z"/>
</g>
<g>
	<g>
		<g>
			<path class="st2" d="M860.9,42.2c-0.1,0-0.2,0-0.4,0c-0.8-0.2-1.3-1-1.1-1.8L869,2.6c0.2-0.8,1-1.3,1.8-1.1
				c0.8,0.2,1.3,1,1.1,1.8l-9.6,37.7C862.1,41.7,861.5,42.2,860.9,42.2z"/>
		</g>
		<g>
			<path class="st2" d="M870.7,5.6c-0.3,0-0.6,0-0.9-0.1c-1.9-0.5-3-2.4-2.5-4.3l6.5-25.7c0.5-1.9,2.4-3,4.3-2.5
				c1.9,0.5,3,2.4,2.5,4.3L874.1,3C873.7,4.5,872.2,5.6,870.7,5.6z"/>
		</g>
	</g>
	<g>
		<g>
			<path class="st2" d="M926,55.1c-0.1,0-0.2,0-0.4,0c-0.8-0.2-1.3-1-1.1-1.8l9.6-37.7c0.2-0.8,1-1.3,1.8-1.1c0.8,0.2,1.3,1,1.1,1.8
				l-9.6,37.7C927.3,54.6,926.6,55.1,926,55.1z"/>
		</g>
		<g>
			<path class="st2" d="M935.8,18.5c-0.3,0-0.6,0-0.9-0.1c-1.9-0.5-3-2.4-2.5-4.3l6.5-25.7c0.5-1.9,2.4-3,4.3-2.5
				c1.9,0.5,3,2.4,2.5,4.3l-6.5,25.7C938.8,17.4,937.3,18.5,935.8,18.5z"/>
		</g>
	</g>
	<g>
		<g>
			<path class="st2" d="M975.8,67.9c-0.1,0-0.2,0-0.4,0c-0.8-0.2-1.3-1-1.1-1.8l9.6-37.7c0.2-0.8,1-1.3,1.8-1.1
				c0.8,0.2,1.3,1,1.1,1.8l-9.6,37.7C977.1,67.5,976.5,67.9,975.8,67.9z"/>
		</g>
		<g>
			<path class="st2" d="M985.6,31.3c-0.3,0-0.6,0-0.9-0.1c-1.9-0.5-3-2.4-2.5-4.3l6.5-25.7c0.5-1.9,2.4-3,4.3-2.5
				c1.9,0.5,3,2.4,2.5,4.3L989,28.7C988.6,30.3,987.2,31.3,985.6,31.3z"/>
		</g>
	</g>
	<g>
		<g>
			<path class="st2" d="M1032.7,74.4c-0.1,0-0.2,0-0.4,0c-0.8-0.2-1.3-1-1.1-1.8l9.6-37.7c0.2-0.8,1-1.3,1.8-1.1
				c0.8,0.2,1.3,1,1.1,1.8l-9.6,37.7C1034,73.9,1033.4,74.4,1032.7,74.4z"/>
		</g>
		<g>
			<path class="st2" d="M1042.5,37.8c-0.3,0-0.6,0-0.9-0.1c-1.9-0.5-3-2.4-2.5-4.3l6.5-25.7c0.5-1.9,2.4-3,4.3-2.5
				c1.9,0.5,3,2.4,2.5,4.3l-6.5,25.7C1045.5,36.7,1044.1,37.8,1042.5,37.8z"/>
		</g>
	</g>
	<g>
		<path class="st2" d="M1048.5,81.5c-28.1,0-81.5-14.4-125.4-26.2c-21.7-5.8-40.4-10.9-48.9-12.1c-5.7-0.8-12.3-1-19.7-0.4
			c-11.5,0.8-22.9,3.2-30.4,5c0,0-0.1,0-0.1,0c-8.5,2.1-14.4,4-14.4,4c-1.8,0.6-3.8-0.4-4.4-2.2c-0.6-1.8,0.4-3.8,2.2-4.4
			c0.2-0.1,6.2-2,15.1-4.2c0,0,0.1,0,0.1,0c7.8-1.9,19.5-4.3,31.5-5.2c7.9-0.6,15-0.4,21.2,0.5c9,1.3,27,6.1,49.8,12.3
			c46.9,12.6,111.1,29.9,132.5,25.2c16.6-3.6,37.7-14,56.3-23c18.4-9,34.4-16.8,45.4-18.4c1.9-0.3,3.7,1,4,3c0.3,1.9-1,3.7-3,4
			c-9.9,1.4-26.1,9.4-43.3,17.8c-19,9.3-40.4,19.8-57.9,23.6C1056,81.3,1052.5,81.5,1048.5,81.5z"/>
	</g>
</g>
</svg>
