<?xml version="1.0" encoding="utf-8"?>
<!-- Generator: Adobe Illustrator 23.1.1, SVG Export Plug-In . SVG Version: 6.00 Build 0)  -->
<svg version="1.1" id="Layer_1" xmlns="http://www.w3.org/2000/svg" xmlns:xlink="http://www.w3.org/1999/xlink" x="0px" y="0px"
	 viewBox="0 0 600 600" style="enable-background:new 0 0 600 600;" xml:space="preserve">
<style type="text/css">
	.st0{fill:#05223B;}
	.st1{opacity:0.24;}
	.st2{fill:#03AEEF;}
	.st3{fill:#000F6B;}
	.st4{fill:#ABE1FA;}
</style>
<g>
	<g>
		<path class="st0" d="M299.7,100.3c26.9,0,53.1,5.3,77.6,15.7c23.7,10,45.1,24.4,63.4,42.8c18.3,18.3,32.7,39.7,42.8,63.4
			c10.4,24.6,15.7,50.7,15.7,77.6s-5.3,53.1-15.7,77.6c-10,23.7-24.4,45.1-42.8,63.4c-18.3,18.3-39.7,32.7-63.4,42.8
			c-24.6,10.4-50.7,15.7-77.6,15.7s-53.1-5.3-77.6-15.7c-23.7-10-45.1-24.4-63.4-42.8c-18.3-18.3-32.7-39.7-42.8-63.4
			c-10.4-24.6-15.7-50.7-15.7-77.6s5.3-53.1,15.7-77.6c10-23.7,24.4-45.1,42.8-63.4s39.7-32.7,63.4-42.8
			C246.6,105.6,272.8,100.3,299.7,100.3 M299.7,81.3C179,81.3,81.2,179.2,81.2,299.8S179,518.3,299.7,518.3s218.5-97.8,218.5-218.5
			S420.3,81.3,299.7,81.3L299.7,81.3z"/>
	</g>
</g>
<g class="st1">
	<path class="st2" d="M299.7,34.5c35.8,0,70.6,7,103.3,20.8c31.6,13.4,60,32.5,84.3,56.9c24.4,24.4,43.5,52.7,56.9,84.3
		C558,229.2,565,264,565,299.8s-7,70.6-20.8,103.3c-13.4,31.6-32.5,60-56.9,84.3c-24.4,24.4-52.7,43.5-84.3,56.9
		c-32.7,13.8-67.4,20.8-103.3,20.8s-70.6-7-103.3-20.8c-31.6-13.4-60-32.5-84.3-56.9c-24.4-24.4-43.5-52.7-56.9-84.3
		c-13.8-32.7-20.8-67.4-20.8-103.3s7-70.6,20.8-103.3c13.4-31.6,32.5-60,56.9-84.3s52.7-43.5,84.3-56.9
		C229.1,41.5,263.9,34.5,299.7,34.5 M299.7,15.5c-157,0-284.3,127.3-284.3,284.3s127.3,284.3,284.3,284.3S584,456.8,584,299.8
		S456.7,15.5,299.7,15.5L299.7,15.5z"/>
</g>
<g>
	<g>
		<g>
			<path class="st3" d="M860.9,42.2c-0.1,0-0.2,0-0.4,0c-0.8-0.2-1.3-1-1.1-1.8L869,2.6c0.2-0.8,1-1.3,1.8-1.1
				c0.8,0.2,1.3,1,1.1,1.8l-9.6,37.7C862.1,41.7,861.5,42.2,860.9,42.2z"/>
		</g>
		<g>
			<path class="st3" d="M870.7,5.6c-0.3,0-0.6,0-0.9-0.1c-1.9-0.5-3-2.4-2.5-4.3l6.5-25.7c0.5-1.9,2.4-3,4.3-2.5
				c1.9,0.5,3,2.4,2.5,4.3L874.1,3C873.7,4.5,872.2,5.6,870.7,5.6z"/>
		</g>
	</g>
	<g>
		<g>
			<path class="st3" d="M926,55.1c-0.1,0-0.2,0-0.4,0c-0.8-0.2-1.3-1-1.1-1.8l9.6-37.7c0.2-0.8,1-1.3,1.8-1.1c0.8,0.2,1.3,1,1.1,1.8
				l-9.6,37.7C927.3,54.6,926.6,55.1,926,55.1z"/>
		</g>
		<g>
			<path class="st3" d="M935.8,18.5c-0.3,0-0.6,0-0.9-0.1c-1.9-0.5-3-2.4-2.5-4.3l6.5-25.7c0.5-1.9,2.4-3,4.3-2.5
				c1.9,0.5,3,2.4,2.5,4.3l-6.5,25.7C938.8,17.4,937.3,18.5,935.8,18.5z"/>
		</g>
	</g>
	<g>
		<g>
			<path class="st3" d="M975.8,67.9c-0.1,0-0.2,0-0.4,0c-0.8-0.2-1.3-1-1.1-1.8l9.6-37.7c0.2-0.8,1-1.3,1.8-1.1
				c0.8,0.2,1.3,1,1.1,1.8l-9.6,37.7C977.1,67.5,976.5,67.9,975.8,67.9z"/>
		</g>
		<g>
			<path class="st3" d="M985.6,31.3c-0.3,0-0.6,0-0.9-0.1c-1.9-0.5-3-2.4-2.5-4.3l6.5-25.7c0.5-1.9,2.4-3,4.3-2.5
				c1.9,0.5,3,2.4,2.5,4.3L989,28.7C988.6,30.3,987.2,31.3,985.6,31.3z"/>
		</g>
	</g>
	<g>
		<g>
			<path class="st3" d="M1032.7,74.4c-0.1,0-0.2,0-0.4,0c-0.8-0.2-1.3-1-1.1-1.8l9.6-37.7c0.2-0.8,1-1.3,1.8-1.1
				c0.8,0.2,1.3,1,1.1,1.8l-9.6,37.7C1034,73.9,1033.4,74.4,1032.7,74.4z"/>
		</g>
		<g>
			<path class="st3" d="M1042.5,37.8c-0.3,0-0.6,0-0.9-0.1c-1.9-0.5-3-2.4-2.5-4.3l6.5-25.7c0.5-1.9,2.4-3,4.3-2.5
				c1.9,0.5,3,2.4,2.5,4.3l-6.5,25.7C1045.5,36.7,1044.1,37.8,1042.5,37.8z"/>
		</g>
	</g>
	<g>
		<path class="st3" d="M1048.5,81.5c-28.1,0-81.5-14.4-125.4-26.2c-21.7-5.8-40.4-10.9-48.9-12.1c-5.7-0.8-12.3-1-19.7-0.4
			c-11.5,0.8-22.9,3.2-30.4,5c0,0-0.1,0-0.1,0c-8.5,2.1-14.4,4-14.4,4c-1.8,0.6-3.8-0.4-4.4-2.2c-0.6-1.8,0.4-3.8,2.2-4.4
			c0.2-0.1,6.2-2,15.1-4.2c0,0,0.1,0,0.1,0c7.8-1.9,19.5-4.3,31.5-5.2c7.9-0.6,15-0.4,21.2,0.5c9,1.3,27,6.1,49.8,12.3
			c46.9,12.6,111.1,29.9,132.5,25.2c16.6-3.6,37.7-14,56.3-23c18.4-9,34.4-16.8,45.4-18.4c1.9-0.3,3.7,1,4,3c0.3,1.9-1,3.7-3,4
			c-9.9,1.4-26.1,9.4-43.3,17.8c-19,9.3-40.4,19.8-57.9,23.6C1056,81.3,1052.5,81.5,1048.5,81.5z"/>
	</g>
</g>
<path class="st4" d="M300.1,230.5c-27.8,0-50.5,22.7-50.5,50.5s22.7,50.5,50.5,50.5c27.8,0,50.5-22.7,50.5-50.5
	S327.9,230.5,300.1,230.5z M300.1,314.7c-18.6,0-33.7-15.1-33.7-33.7s15.1-33.7,33.7-33.7s33.7,15.1,33.7,33.7
	S318.6,314.7,300.1,314.7z M300.1,180c-55.8,0-101,45.2-101,101c0,40.7,14.2,52.1,90.6,162.9c5,7.2,15.7,7.2,20.8,0
	c76.4-110.8,90.6-122.2,90.6-162.9C401.1,225.2,355.8,180,300.1,180z M300.1,429.3c-73.3-106-84.2-114.4-84.2-148.3
	c0-22.5,8.8-43.6,24.7-59.5s37-24.7,59.5-24.7c22.5,0,43.6,8.8,59.5,24.7c15.9,15.9,24.7,37,24.7,59.5
	C384.2,314.9,373.3,323.3,300.1,429.3z"/>
</svg>
