<?xml version="1.0" encoding="utf-8"?>
<!-- Generator: Adobe Illustrator 23.1.1, SVG Export Plug-In . SVG Version: 6.00 Build 0)  -->
<svg version="1.1" id="Layer_1" xmlns="http://www.w3.org/2000/svg" xmlns:xlink="http://www.w3.org/1999/xlink" x="0px" y="0px"
	 viewBox="0 0 320 376" style="enable-background:new 0 0 320 376;" xml:space="preserve">
<style type="text/css">
	.st0{fill:#03182A;}
	.st1{fill:#ABE1FA;}
</style>
<g>
	<rect x="0.5" y="0.5" class="st0" width="319" height="375"/>
	<path d="M319,1v374H1V1H319 M320,0H0v376h320V0L320,0z"/>
</g>
<g id="JY9mcc.tif">
</g>
<rect x="267.1" y="24" class="st1" width="13" height="3"/>
<rect x="267.1" y="29" class="st1" width="13" height="3"/>
<rect x="267.1" y="34" class="st1" width="13" height="3"/>
<rect x="267.1" y="39" class="st1" width="13" height="3"/>
<rect x="267.1" y="44" class="st1" width="13" height="3"/>
<rect x="267.1" y="49" class="st1" width="13" height="3"/>
<rect x="267.1" y="54" class="st1" width="13" height="3"/>
<rect x="267.1" y="59" class="st1" width="13" height="3"/>
<rect x="267.1" y="64" class="st1" width="13" height="3"/>
<rect x="267.1" y="69" class="st1" width="13" height="3"/>
<rect x="267.1" y="74" class="st1" width="13" height="3"/>
<rect x="267.1" y="79" class="st1" width="13" height="3"/>
<rect x="267.1" y="84" class="st1" width="13" height="3"/>
<rect x="267.1" y="89" class="st1" width="13" height="3"/>
<rect x="267.1" y="94" class="st1" width="13" height="3"/>
<rect x="267.1" y="99" class="st1" width="13" height="3"/>
<rect x="267.1" y="104" class="st1" width="13" height="3"/>
<rect x="267.1" y="109" class="st1" width="13" height="3"/>
<rect x="267.1" y="114" class="st1" width="13" height="3"/>
<rect x="267.1" y="119" class="st1" width="13" height="3"/>
<path class="st1" d="M273.6,122"/>
<polygon class="st1" points="275.1,343 275.1,122 272.2,122 272.2,343 273.9,356 "/>
<rect x="167.3" y="47.6" transform="matrix(0.8112 -0.5848 0.5848 0.8112 4.0781 110.9214)" class="st1" width="13" height="3"/>
<rect x="170.2" y="51.7" transform="matrix(0.8112 -0.5848 0.5848 0.8112 2.2584 113.3974)" class="st1" width="13" height="3"/>
<rect x="173.1" y="55.8" transform="matrix(0.8112 -0.5848 0.5848 0.8112 0.4386 115.8734)" class="st1" width="13" height="3"/>
<rect x="176.1" y="59.8" transform="matrix(0.8112 -0.5848 0.5848 0.8112 -1.3811 118.3494)" class="st1" width="13" height="3"/>
<rect x="179" y="63.9" transform="matrix(0.8112 -0.5848 0.5848 0.8112 -3.2008 120.8255)" class="st1" width="13" height="3"/>
<rect x="181.9" y="67.9" transform="matrix(0.8112 -0.5848 0.5848 0.8112 -5.0206 123.3015)" class="st1" width="13" height="3"/>
<rect x="184.8" y="72" transform="matrix(0.8112 -0.5848 0.5848 0.8112 -6.8403 125.7775)" class="st1" width="13" height="3"/>
<rect x="187.8" y="76" transform="matrix(0.8112 -0.5848 0.5848 0.8112 -8.66 128.2535)" class="st1" width="13" height="3"/>
<rect x="190.7" y="80.1" transform="matrix(0.8112 -0.5848 0.5848 0.8112 -10.4798 130.7295)" class="st1" width="13" height="3"/>
<rect x="193.6" y="84.1" transform="matrix(0.8112 -0.5848 0.5848 0.8112 -12.2995 133.2055)" class="st1" width="13" height="3"/>
<rect x="196.5" y="88.2" transform="matrix(0.8112 -0.5848 0.5848 0.8112 -14.1192 135.6815)" class="st1" width="13" height="3"/>
<rect x="199.5" y="92.3" transform="matrix(0.8112 -0.5848 0.5848 0.8112 -15.939 138.1576)" class="st1" width="13" height="3"/>
<rect x="202.4" y="96.3" transform="matrix(0.8112 -0.5848 0.5848 0.8112 -17.7587 140.6336)" class="st1" width="13" height="3"/>
<rect x="205.3" y="100.4" transform="matrix(0.8112 -0.5848 0.5848 0.8112 -19.5785 143.1096)" class="st1" width="13" height="3"/>
<rect x="208.2" y="104.4" transform="matrix(0.8112 -0.5848 0.5848 0.8112 -21.3982 145.5856)" class="st1" width="13" height="3"/>
<rect x="211.2" y="108.5" transform="matrix(0.8112 -0.5848 0.5848 0.8112 -23.2179 148.0616)" class="st1" width="13" height="3"/>
<rect x="214.1" y="112.5" transform="matrix(0.8112 -0.5848 0.5848 0.8112 -25.0377 150.5377)" class="st1" width="13" height="3"/>
<rect x="217" y="116.6" transform="matrix(0.8112 -0.5848 0.5848 0.8112 -26.8574 153.0137)" class="st1" width="13" height="3"/>
<rect x="219.9" y="120.7" transform="matrix(0.8112 -0.5848 0.5848 0.8112 -28.6771 155.4897)" class="st1" width="13" height="3"/>
<rect x="222.9" y="124.7" transform="matrix(0.8112 -0.5848 0.5848 0.8112 -30.4969 157.9657)" class="st1" width="13" height="3"/>
<path class="st1" d="M230.2,127.4"/>
<polygon class="st1" points="360.7,305.8 231.4,126.6 229.1,128.3 358.3,307.5 367.3,317.1 "/>
</svg>
