<?xml version="1.0" encoding="utf-8"?>
<!-- Generator: Adobe Illustrator 23.1.1, SVG Export Plug-In . SVG Version: 6.00 Build 0)  -->
<svg version="1.1" id="Layer_1" xmlns="http://www.w3.org/2000/svg" xmlns:xlink="http://www.w3.org/1999/xlink" x="0px" y="0px"
	 viewBox="0 0 320 400" style="enable-background:new 0 0 320 400;" xml:space="preserve">
<style type="text/css">
	.st0{fill:#03182A;}
	.st1{fill:#ABE1FA;}
</style>
<g>
	<rect x="0.5" y="0.5" class="st0" width="319" height="399"/>
	<path d="M319,1v398H1V1H319 M320,0H0v400h320V0L320,0z"/>
</g>
<g id="JY9mcc.tif">
</g>
<rect x="267.1" y="36" class="st1" width="13" height="3"/>
<rect x="267.1" y="41" class="st1" width="13" height="3"/>
<rect x="267.1" y="46" class="st1" width="13" height="3"/>
<rect x="267.1" y="51" class="st1" width="13" height="3"/>
<rect x="267.1" y="56" class="st1" width="13" height="3"/>
<rect x="267.1" y="61" class="st1" width="13" height="3"/>
<rect x="267.1" y="66" class="st1" width="13" height="3"/>
<rect x="267.1" y="71" class="st1" width="13" height="3"/>
<rect x="267.1" y="76" class="st1" width="13" height="3"/>
<rect x="267.1" y="81" class="st1" width="13" height="3"/>
<rect x="267.1" y="86" class="st1" width="13" height="3"/>
<rect x="267.1" y="91" class="st1" width="13" height="3"/>
<rect x="267.1" y="96" class="st1" width="13" height="3"/>
<rect x="267.1" y="101" class="st1" width="13" height="3"/>
<rect x="267.1" y="106" class="st1" width="13" height="3"/>
<rect x="267.1" y="111" class="st1" width="13" height="3"/>
<rect x="267.1" y="116" class="st1" width="13" height="3"/>
<rect x="267.1" y="121" class="st1" width="13" height="3"/>
<rect x="267.1" y="126" class="st1" width="13" height="3"/>
<rect x="267.1" y="131" class="st1" width="13" height="3"/>
<path class="st1" d="M273.6,134"/>
<polygon class="st1" points="275.1,355 275.1,134 272.2,134 272.2,355 273.9,368 "/>
<rect x="167.3" y="59.6" transform="matrix(0.8112 -0.5848 0.5848 0.8112 -2.9398 113.1875)" class="st1" width="13" height="3"/>
<rect x="170.2" y="63.7" transform="matrix(0.8112 -0.5848 0.5848 0.8112 -4.7595 115.6635)" class="st1" width="13" height="3"/>
<rect x="173.1" y="67.8" transform="matrix(0.8112 -0.5848 0.5848 0.8112 -6.5793 118.1395)" class="st1" width="13" height="3"/>
<rect x="176.1" y="71.8" transform="matrix(0.8112 -0.5848 0.5848 0.8112 -8.399 120.6155)" class="st1" width="13" height="3"/>
<rect x="179" y="75.9" transform="matrix(0.8112 -0.5848 0.5848 0.8112 -10.2188 123.0916)" class="st1" width="13" height="3"/>
<rect x="181.9" y="79.9" transform="matrix(0.8112 -0.5848 0.5848 0.8112 -12.0385 125.5676)" class="st1" width="13" height="3"/>
<rect x="184.8" y="84" transform="matrix(0.8112 -0.5848 0.5848 0.8112 -13.8582 128.0436)" class="st1" width="13" height="3"/>
<rect x="187.8" y="88" transform="matrix(0.8112 -0.5848 0.5848 0.8112 -15.678 130.5196)" class="st1" width="13" height="3"/>
<rect x="190.7" y="92.1" transform="matrix(0.8112 -0.5848 0.5848 0.8112 -17.4977 132.9956)" class="st1" width="13" height="3"/>
<rect x="193.6" y="96.1" transform="matrix(0.8112 -0.5848 0.5848 0.8112 -19.3174 135.4716)" class="st1" width="13" height="3"/>
<rect x="196.5" y="100.2" transform="matrix(0.8112 -0.5848 0.5848 0.8112 -21.1372 137.9477)" class="st1" width="13" height="3"/>
<rect x="199.5" y="104.3" transform="matrix(0.8112 -0.5848 0.5848 0.8112 -22.9569 140.4237)" class="st1" width="13" height="3"/>
<rect x="202.4" y="108.3" transform="matrix(0.8112 -0.5848 0.5848 0.8112 -24.7766 142.8997)" class="st1" width="13" height="3"/>
<rect x="205.3" y="112.4" transform="matrix(0.8112 -0.5848 0.5848 0.8112 -26.5964 145.3757)" class="st1" width="13" height="3"/>
<rect x="208.2" y="116.4" transform="matrix(0.8112 -0.5848 0.5848 0.8112 -28.4161 147.8517)" class="st1" width="13" height="3"/>
<rect x="211.2" y="120.5" transform="matrix(0.8112 -0.5848 0.5848 0.8112 -30.2358 150.3277)" class="st1" width="13" height="3"/>
<rect x="214.1" y="124.5" transform="matrix(0.8112 -0.5848 0.5848 0.8112 -32.0556 152.8038)" class="st1" width="13" height="3"/>
<rect x="217" y="128.6" transform="matrix(0.8112 -0.5848 0.5848 0.8112 -33.8753 155.2798)" class="st1" width="13" height="3"/>
<rect x="219.9" y="132.7" transform="matrix(0.8112 -0.5848 0.5848 0.8112 -35.6951 157.7558)" class="st1" width="13" height="3"/>
<rect x="222.9" y="136.7" transform="matrix(0.8112 -0.5848 0.5848 0.8112 -37.5148 160.2318)" class="st1" width="13" height="3"/>
<path class="st1" d="M230.2,139.4"/>
<polygon class="st1" points="360.7,317.8 231.4,138.6 229.1,140.3 358.3,319.5 367.3,329.1 "/>
</svg>
