<?xml version="1.0" encoding="utf-8"?>
<!-- Generator: Adobe Illustrator 23.1.1, SVG Export Plug-In . SVG Version: 6.00 Build 0)  -->
<svg version="1.1" id="Layer_1" xmlns="http://www.w3.org/2000/svg" xmlns:xlink="http://www.w3.org/1999/xlink" x="0px" y="0px"
	 viewBox="0 0 320 1200" style="enable-background:new 0 0 320 1200;" xml:space="preserve">
<style type="text/css">
	.st0{fill:#03182A;}
	.st1{opacity:0.24;}
	.st2{opacity:0.36;fill:#ABE1FA;}
</style>
<g>
	<rect x="-0.4" y="0" class="st0" width="320" height="1200"/>
</g>
<g class="st1">
	<rect x="216" y="683.2" class="st2" width="17.4" height="4"/>
	<rect x="216" y="689.8" class="st2" width="17.4" height="4"/>
	<rect x="216" y="696.5" class="st2" width="17.4" height="4"/>
	<rect x="216" y="703.2" class="st2" width="17.4" height="4"/>
	<rect x="216" y="709.9" class="st2" width="17.4" height="4"/>
	<rect x="216" y="716.6" class="st2" width="17.4" height="4"/>
	<rect x="216" y="723.3" class="st2" width="17.4" height="4"/>
	<rect x="216" y="730" class="st2" width="17.4" height="4"/>
	<rect x="216" y="736.7" class="st2" width="17.4" height="4"/>
	<rect x="216" y="743.3" class="st2" width="17.4" height="4"/>
	<rect x="216" y="750" class="st2" width="17.4" height="4"/>
	<rect x="216" y="756.7" class="st2" width="17.4" height="4"/>
	<rect x="216" y="763.4" class="st2" width="17.4" height="4"/>
	<rect x="216" y="770.1" class="st2" width="17.4" height="4"/>
	<rect x="216" y="776.8" class="st2" width="17.4" height="4"/>
	<rect x="216" y="783.5" class="st2" width="17.4" height="4"/>
	<rect x="216" y="790.2" class="st2" width="17.4" height="4"/>
	<rect x="216" y="796.8" class="st2" width="17.4" height="4"/>
	<rect x="216" y="803.5" class="st2" width="17.4" height="4"/>
	<polygon class="st2" points="222.8,902.6 222.8,1109.8 225.1,1127.2 226.7,1109.8 226.7,907.9 226.7,901.3 226.7,814.2 
		233.4,814.2 233.4,810.2 216,810.2 216,814.2 222.8,814.2 222.8,895.9 	"/>
</g>
</svg>
