<?xml version="1.0" encoding="utf-8"?>
<!-- Generator: Adobe Illustrator 23.1.1, SVG Export Plug-In . SVG Version: 6.00 Build 0)  -->
<svg version="1.1" id="Layer_1" xmlns="http://www.w3.org/2000/svg" xmlns:xlink="http://www.w3.org/1999/xlink" x="0px" y="0px"
	 viewBox="0 0 502.1 173.3" style="enable-background:new 0 0 502.1 173.3;" xml:space="preserve">
<style type="text/css">
	.st0{fill:#FFFFFF;}
</style>
<g>
	<polygon class="st0" points="471.1,150.7 249.8,150.7 249.8,142.3 224.1,142.3 224.1,165.4 249.8,165.4 249.8,157.1 471.1,157.1 
		488.3,153.9 	"/>
	<polygon class="st0" points="153.8,108.5 117,108.5 117,80.5 148,80.5 148,56.3 117,56.3 117,31.3 152.4,31.3 152.4,7.1 88.1,7.1 
		88.1,132.7 153.8,132.7 	"/>
	<polygon class="st0" points="78.8,30.6 78.8,7.1 7.6,7.1 7.6,31.3 46.6,31.3 8,142.6 8,166 131.7,166 131.7,141.8 39.9,141.8 	"/>
	<polygon class="st0" points="218.4,132.7 249.8,132.7 249.8,7.1 221.9,7.1 221.9,81.2 221.5,81.2 198.3,7.1 166.7,7.1 166.7,132.7 
		194.7,132.7 194.7,55.1 195,55.1 	"/>
	<rect x="165.4" y="142.3" class="st0" width="25.7" height="23.1"/>
	<rect x="194.8" y="142.3" class="st0" width="25.7" height="23.1"/>
	<rect x="136.1" y="142.3" class="st0" width="25.7" height="23.1"/>
</g>
<g>
	<path class="st0" d="M440,59.4h5.3c8.2,0,11,2.3,11,7.6v14.7c0,6.1,0,14.4,3.3,17.4h28.6c-3.3-3-3-11.3-3-17.4V65.5
		c0-7.7-6.6-13.1-16.8-14.6v-0.2c15.4-3.5,17.4-10.5,17.4-21.3c0-16.6-10.8-22.2-36.6-22.2H411V99h29V59.4z M440,22.8h5.7
		c11.3,0,11.3,3.7,11.3,10.1c0,6,0,10.8-9.9,10.8H440V22.8z"/>
	<polygon class="st0" points="276.7,99 305.6,99 305.6,24.9 324.3,24.9 324.3,7.1 258,7.1 258,24.9 276.7,24.9 	"/>
	<polygon class="st0" points="361.4,60.9 392.4,60.9 392.4,43.1 361.4,43.1 361.4,24.9 396.8,24.9 396.8,7.1 332.5,7.1 332.5,99 
		398.2,99 398.2,81.3 361.4,81.3 	"/>
	<path class="st0" d="M481.5,125.3c2.5-1.2,3.5-3.5,3.5-6.5c0-3.9-2.5-7.1-6.5-7.1h-12v25.7h4.9v-10.1h4.9c2.5,0,3.4,1.2,3.7,3.9
		c0.2,2.1,0.2,4.5,0.8,6.2h4.9c-0.9-1.4-0.8-4.5-0.9-6.1C484.6,128.7,483.9,126,481.5,125.3z M476.7,123.3h-5.4v-7.2h5.4
		c2.2,0,3.4,1.1,3.4,3.6C480.1,122.3,478.9,123.3,476.7,123.3z"/>
	<path class="st0" d="M457.4,127.7c0,3.8-1.1,5.6-4.6,5.6c-4,0-4.6-2.8-4.6-5.6v-16h-4.9v16c0,7,3.5,10.3,9.5,10.3s9.5-3.4,9.5-10.3
		v-16h-4.9V127.7z"/>
	<path class="st0" d="M369.5,127.7c0,3.8-1.1,5.6-4.6,5.6c-4,0-4.6-2.8-4.6-5.6v-16h-4.9v16c0,7,3.5,10.3,9.5,10.3s9.5-3.4,9.5-10.3
		v-16h-4.9V127.7z"/>
	<polygon class="st0" points="422.5,116.5 429.2,116.5 429.2,137.4 434.1,137.4 434.1,116.5 440.8,116.5 440.8,111.7 422.5,111.7 	
		"/>
	<path class="st0" d="M273.7,111.7l-8.5,25.7h5l1.7-5.7h8.3l1.7,5.7h5.1l-8.3-25.7H273.7z M273.2,127.5l2.9-9.4h0.1l2.8,9.4H273.2z"
		/>
	<polygon class="st0" points="421.5,111.7 415.3,111.7 406.6,122.4 406.6,111.7 401.7,111.7 401.7,137.4 406.6,137.4 406.6,129.1 
		409.4,125.9 416.2,137.4 422.3,137.4 412.7,121.9 	"/>
	<polygon class="st0" points="392.8,129 383.5,111.7 378.6,111.7 378.6,137.4 383.2,137.4 383.2,120.2 392.5,137.4 397.4,137.4 
		397.4,111.7 392.8,111.7 	"/>
	<path class="st0" d="M344.7,111.7h-10.1v25.7h4.9v-9.2h5.2c5.6,0,7.7-4.1,7.7-8.3C352.4,115.8,350.3,111.7,344.7,111.7z
		 M343.4,123.8h-3.8v-7.7h3.8c2.3,0,4.3,0.6,4.3,3.9C347.7,123.2,345.6,123.8,343.4,123.8z"/>
	<polygon class="st0" points="308.7,111.7 302.6,111.7 293.9,122.4 293.9,111.7 289,111.7 289,137.4 293.9,137.4 293.9,129.1 
		296.7,125.9 303.4,137.4 309.6,137.4 300,121.9 	"/>
	<path class="st0" d="M325.5,127.7c0,3.8-1.1,5.6-4.6,5.6c-4,0-4.6-2.8-4.6-5.6v-16h-4.9v16c0,7,3.5,10.3,9.5,10.3s9.5-3.4,9.5-10.3
		v-16h-4.9V127.7z"/>
</g>
</svg>
